<mxfile host="app.diagrams.net" modified="2022-10-21T20:35:42.450Z" agent="5.0 (Windows)" etag="4XXk28sXWpNkEAueUFHB" version="20.4.1" type="github">
  <diagram name="Page-1" id="c7558073-3199-34d8-9f00-42111426c3f3">
    <mxGraphModel dx="1422" dy="744" grid="1" gridSize="10" guides="1" tooltips="1" connect="1" arrows="1" fold="1" page="1" pageScale="1" pageWidth="826" pageHeight="1169" background="none" math="0" shadow="0">
      <root>
        <mxCell id="0" />
        <mxCell id="1" parent="0" />
        <mxCell id="BQh667uKtFPZFXDKLswa-106" value="" style="edgeStyle=orthogonalEdgeStyle;rounded=0;orthogonalLoop=1;jettySize=auto;html=1;fontColor=#000000;entryX=0;entryY=0.75;entryDx=0;entryDy=0;entryPerimeter=0;" edge="1" parent="1" source="BQh667uKtFPZFXDKLswa-96" target="BQh667uKtFPZFXDKLswa-101">
          <mxGeometry relative="1" as="geometry">
            <mxPoint x="295" y="70" as="targetPoint" />
          </mxGeometry>
        </mxCell>
        <mxCell id="BQh667uKtFPZFXDKLswa-96" value="data_file" style="strokeWidth=2;html=1;shape=mxgraph.flowchart.stored_data;whiteSpace=wrap;fontColor=#000000;" vertex="1" parent="1">
          <mxGeometry x="170" y="40" width="150" height="60" as="geometry" />
        </mxCell>
        <mxCell id="BQh667uKtFPZFXDKLswa-97" value="Fields" style="swimlane;fontStyle=0;childLayout=stackLayout;horizontal=1;startSize=30;horizontalStack=0;resizeParent=1;resizeParentMax=0;resizeLast=0;collapsible=1;marginBottom=0;fontColor=#000000;" vertex="1" parent="1">
          <mxGeometry x="180" y="100" width="140" height="90" as="geometry" />
        </mxCell>
        <mxCell id="BQh667uKtFPZFXDKLswa-98" value="datetime_stamp_UTC" style="text;strokeColor=none;fillColor=none;align=left;verticalAlign=middle;spacingLeft=4;spacingRight=4;overflow=hidden;points=[[0,0.5],[1,0.5]];portConstraint=eastwest;rotatable=0;fontColor=#000000;" vertex="1" parent="BQh667uKtFPZFXDKLswa-97">
          <mxGeometry y="30" width="140" height="30" as="geometry" />
        </mxCell>
        <mxCell id="BQh667uKtFPZFXDKLswa-99" value="close" style="text;strokeColor=none;fillColor=none;align=left;verticalAlign=middle;spacingLeft=4;spacingRight=4;overflow=hidden;points=[[0,0.5],[1,0.5]];portConstraint=eastwest;rotatable=0;fontColor=#000000;" vertex="1" parent="BQh667uKtFPZFXDKLswa-97">
          <mxGeometry y="60" width="140" height="30" as="geometry" />
        </mxCell>
        <mxCell id="BQh667uKtFPZFXDKLswa-108" value="" style="edgeStyle=orthogonalEdgeStyle;rounded=0;orthogonalLoop=1;jettySize=auto;html=1;fontColor=#000000;" edge="1" parent="1" source="BQh667uKtFPZFXDKLswa-101" target="BQh667uKtFPZFXDKLswa-102">
          <mxGeometry relative="1" as="geometry" />
        </mxCell>
        <mxCell id="BQh667uKtFPZFXDKLswa-101" value="Read file" style="html=1;outlineConnect=0;whiteSpace=wrap;fillColor=#AFFFAF;shape=mxgraph.archimate3.application;appType=proc;archiType=rounded;fontColor=#000000;" vertex="1" parent="1">
          <mxGeometry x="360" y="40" width="160" height="40" as="geometry" />
        </mxCell>
        <mxCell id="BQh667uKtFPZFXDKLswa-109" value="" style="edgeStyle=orthogonalEdgeStyle;rounded=0;orthogonalLoop=1;jettySize=auto;html=1;fontColor=#000000;" edge="1" parent="1" source="BQh667uKtFPZFXDKLswa-102" target="BQh667uKtFPZFXDKLswa-104">
          <mxGeometry relative="1" as="geometry" />
        </mxCell>
        <mxCell id="BQh667uKtFPZFXDKLswa-102" value="resample to 1 min" style="html=1;outlineConnect=0;whiteSpace=wrap;fillColor=#AFFFAF;shape=mxgraph.archimate3.application;appType=proc;archiType=rounded;fontColor=#000000;" vertex="1" parent="1">
          <mxGeometry x="360" y="120" width="160" height="40" as="geometry" />
        </mxCell>
        <mxCell id="BQh667uKtFPZFXDKLswa-112" value="" style="edgeStyle=orthogonalEdgeStyle;rounded=0;orthogonalLoop=1;jettySize=auto;html=1;fontColor=#000000;" edge="1" parent="1" source="BQh667uKtFPZFXDKLswa-103" target="BQh667uKtFPZFXDKLswa-111">
          <mxGeometry relative="1" as="geometry" />
        </mxCell>
        <mxCell id="BQh667uKtFPZFXDKLswa-103" value="&lt;div&gt;filter trading period&lt;/div&gt;(gets rid on o/n returns)" style="html=1;outlineConnect=0;whiteSpace=wrap;fillColor=#AFFFAF;shape=mxgraph.archimate3.application;appType=proc;archiType=rounded;fontColor=#000000;" vertex="1" parent="1">
          <mxGeometry x="360" y="280" width="160" height="40" as="geometry" />
        </mxCell>
        <mxCell id="BQh667uKtFPZFXDKLswa-110" value="" style="edgeStyle=orthogonalEdgeStyle;rounded=0;orthogonalLoop=1;jettySize=auto;html=1;fontColor=#000000;" edge="1" parent="1" source="BQh667uKtFPZFXDKLswa-104" target="BQh667uKtFPZFXDKLswa-103">
          <mxGeometry relative="1" as="geometry" />
        </mxCell>
        <mxCell id="BQh667uKtFPZFXDKLswa-104" value="&lt;div&gt;get log-returns&lt;/div&gt;" style="html=1;outlineConnect=0;whiteSpace=wrap;fillColor=#AFFFAF;shape=mxgraph.archimate3.application;appType=proc;archiType=rounded;fontColor=#000000;" vertex="1" parent="1">
          <mxGeometry x="360" y="200" width="160" height="40" as="geometry" />
        </mxCell>
        <mxCell id="BQh667uKtFPZFXDKLswa-114" value="" style="edgeStyle=orthogonalEdgeStyle;rounded=0;orthogonalLoop=1;jettySize=auto;html=1;fontColor=#000000;" edge="1" parent="1" source="BQh667uKtFPZFXDKLswa-111" target="BQh667uKtFPZFXDKLswa-113">
          <mxGeometry relative="1" as="geometry" />
        </mxCell>
        <mxCell id="BQh667uKtFPZFXDKLswa-126" style="edgeStyle=orthogonalEdgeStyle;rounded=0;orthogonalLoop=1;jettySize=auto;html=1;exitX=0.5;exitY=1;exitDx=0;exitDy=0;exitPerimeter=0;entryX=0.5;entryY=0;entryDx=0;entryDy=0;entryPerimeter=0;fontColor=#000000;" edge="1" parent="1" source="BQh667uKtFPZFXDKLswa-111" target="BQh667uKtFPZFXDKLswa-119">
          <mxGeometry relative="1" as="geometry" />
        </mxCell>
        <mxCell id="BQh667uKtFPZFXDKLswa-111" value="&lt;div&gt;resample to 5 min&lt;/div&gt;&lt;div&gt;rename field&lt;br&gt;&lt;/div&gt;" style="html=1;outlineConnect=0;whiteSpace=wrap;fillColor=#AFFFAF;shape=mxgraph.archimate3.application;appType=proc;archiType=rounded;fontColor=#000000;" vertex="1" parent="1">
          <mxGeometry x="360" y="360" width="160" height="40" as="geometry" />
        </mxCell>
        <mxCell id="BQh667uKtFPZFXDKLswa-113" value="data_5min" style="shape=parallelogram;html=1;strokeWidth=2;perimeter=parallelogramPerimeter;whiteSpace=wrap;rounded=1;arcSize=12;size=0.23;fontColor=#000000;" vertex="1" parent="1">
          <mxGeometry x="560" y="350" width="180" height="60" as="geometry" />
        </mxCell>
        <mxCell id="BQh667uKtFPZFXDKLswa-115" value="Fields" style="swimlane;fontStyle=0;childLayout=stackLayout;horizontal=1;startSize=30;horizontalStack=0;resizeParent=1;resizeParentMax=0;resizeLast=0;collapsible=1;marginBottom=0;fontColor=#000000;" vertex="1" parent="1">
          <mxGeometry x="560" y="410" width="140" height="120" as="geometry" />
        </mxCell>
        <mxCell id="BQh667uKtFPZFXDKLswa-116" value="datetime_stamp_UTC" style="text;strokeColor=none;fillColor=none;align=left;verticalAlign=middle;spacingLeft=4;spacingRight=4;overflow=hidden;points=[[0,0.5],[1,0.5]];portConstraint=eastwest;rotatable=0;fontColor=#000000;" vertex="1" parent="BQh667uKtFPZFXDKLswa-115">
          <mxGeometry y="30" width="140" height="30" as="geometry" />
        </mxCell>
        <mxCell id="BQh667uKtFPZFXDKLswa-117" value="close" style="text;strokeColor=none;fillColor=none;align=left;verticalAlign=middle;spacingLeft=4;spacingRight=4;overflow=hidden;points=[[0,0.5],[1,0.5]];portConstraint=eastwest;rotatable=0;fontColor=#000000;" vertex="1" parent="BQh667uKtFPZFXDKLswa-115">
          <mxGeometry y="60" width="140" height="30" as="geometry" />
        </mxCell>
        <mxCell id="BQh667uKtFPZFXDKLswa-118" value="RV5min" style="text;strokeColor=none;fillColor=none;align=left;verticalAlign=middle;spacingLeft=4;spacingRight=4;overflow=hidden;points=[[0,0.5],[1,0.5]];portConstraint=eastwest;rotatable=0;fontColor=#000000;" vertex="1" parent="BQh667uKtFPZFXDKLswa-115">
          <mxGeometry y="90" width="140" height="30" as="geometry" />
        </mxCell>
        <mxCell id="BQh667uKtFPZFXDKLswa-128" value="" style="edgeStyle=orthogonalEdgeStyle;rounded=0;orthogonalLoop=1;jettySize=auto;html=1;fontColor=#000000;" edge="1" parent="1" source="BQh667uKtFPZFXDKLswa-119" target="BQh667uKtFPZFXDKLswa-127">
          <mxGeometry relative="1" as="geometry" />
        </mxCell>
        <mxCell id="BQh667uKtFPZFXDKLswa-119" value="resample to daily" style="html=1;outlineConnect=0;whiteSpace=wrap;fillColor=#AFFFAF;shape=mxgraph.archimate3.application;appType=proc;archiType=rounded;fontColor=#000000;" vertex="1" parent="1">
          <mxGeometry x="360" y="560" width="160" height="40" as="geometry" />
        </mxCell>
        <mxCell id="BQh667uKtFPZFXDKLswa-120" value="data_1day" style="shape=parallelogram;html=1;strokeWidth=2;perimeter=parallelogramPerimeter;whiteSpace=wrap;rounded=1;arcSize=12;size=0.23;fontColor=#000000;" vertex="1" parent="1">
          <mxGeometry x="560" y="630" width="180" height="60" as="geometry" />
        </mxCell>
        <mxCell id="BQh667uKtFPZFXDKLswa-121" value="Fields" style="swimlane;fontStyle=0;childLayout=stackLayout;horizontal=1;startSize=30;horizontalStack=0;resizeParent=1;resizeParentMax=0;resizeLast=0;collapsible=1;marginBottom=0;fontColor=#000000;" vertex="1" parent="1">
          <mxGeometry x="560" y="690" width="140" height="180" as="geometry" />
        </mxCell>
        <mxCell id="BQh667uKtFPZFXDKLswa-122" value="datetime_stamp_UTC" style="text;strokeColor=none;fillColor=none;align=left;verticalAlign=middle;spacingLeft=4;spacingRight=4;overflow=hidden;points=[[0,0.5],[1,0.5]];portConstraint=eastwest;rotatable=0;fontColor=#000000;" vertex="1" parent="BQh667uKtFPZFXDKLswa-121">
          <mxGeometry y="30" width="140" height="30" as="geometry" />
        </mxCell>
        <mxCell id="BQh667uKtFPZFXDKLswa-123" value="close" style="text;strokeColor=none;fillColor=none;align=left;verticalAlign=middle;spacingLeft=4;spacingRight=4;overflow=hidden;points=[[0,0.5],[1,0.5]];portConstraint=eastwest;rotatable=0;fontColor=#000000;" vertex="1" parent="BQh667uKtFPZFXDKLswa-121">
          <mxGeometry y="60" width="140" height="30" as="geometry" />
        </mxCell>
        <mxCell id="BQh667uKtFPZFXDKLswa-124" value="RV01day" style="text;strokeColor=none;fillColor=none;align=left;verticalAlign=middle;spacingLeft=4;spacingRight=4;overflow=hidden;points=[[0,0.5],[1,0.5]];portConstraint=eastwest;rotatable=0;fontColor=#000000;" vertex="1" parent="BQh667uKtFPZFXDKLswa-121">
          <mxGeometry y="90" width="140" height="30" as="geometry" />
        </mxCell>
        <mxCell id="BQh667uKtFPZFXDKLswa-130" value="RV05day" style="text;strokeColor=none;fillColor=none;align=left;verticalAlign=middle;spacingLeft=4;spacingRight=4;overflow=hidden;points=[[0,0.5],[1,0.5]];portConstraint=eastwest;rotatable=0;fontColor=#000000;" vertex="1" parent="BQh667uKtFPZFXDKLswa-121">
          <mxGeometry y="120" width="140" height="30" as="geometry" />
        </mxCell>
        <mxCell id="BQh667uKtFPZFXDKLswa-131" value="RV20day" style="text;strokeColor=none;fillColor=none;align=left;verticalAlign=middle;spacingLeft=4;spacingRight=4;overflow=hidden;points=[[0,0.5],[1,0.5]];portConstraint=eastwest;rotatable=0;fontColor=#000000;" vertex="1" parent="BQh667uKtFPZFXDKLswa-121">
          <mxGeometry y="150" width="140" height="30" as="geometry" />
        </mxCell>
        <mxCell id="BQh667uKtFPZFXDKLswa-129" value="" style="edgeStyle=orthogonalEdgeStyle;rounded=0;orthogonalLoop=1;jettySize=auto;html=1;fontColor=#000000;" edge="1" parent="1" source="BQh667uKtFPZFXDKLswa-127" target="BQh667uKtFPZFXDKLswa-120">
          <mxGeometry relative="1" as="geometry" />
        </mxCell>
        <mxCell id="BQh667uKtFPZFXDKLswa-127" value="&lt;div&gt;5day and 20day&lt;/div&gt;&lt;div&gt;moving averages&lt;br&gt;&lt;/div&gt;" style="html=1;outlineConnect=0;whiteSpace=wrap;fillColor=#AFFFAF;shape=mxgraph.archimate3.application;appType=proc;archiType=rounded;fontColor=#000000;" vertex="1" parent="1">
          <mxGeometry x="360" y="640" width="160" height="40" as="geometry" />
        </mxCell>
      </root>
    </mxGraphModel>
  </diagram>
</mxfile>
